<?xml version="1.0" encoding="UTF-8"?>
<svg width="464px" height="303px" viewBox="0 0 464 303" version="1.1" xmlns="http://www.w3.org/2000/svg" xmlns:xlink="http://www.w3.org/1999/xlink">
    <!-- Generator: Sketch 61 (89581) - https://sketch.com -->
    <title>ic_scooter</title>
    <desc>Created with Sketch.</desc>
    <g id="Website" stroke="none" stroke-width="1" fill="none" fill-rule="evenodd">
        <g id="Become-a-Rider" transform="translate(-146.000000, -360.000000)">
            <g id="Group-14">
                <g id="ic_scooter" transform="translate(146.000000, 360.000000)">
                    <path d="M302.876735,302.47122 C214.112844,302.47122 142.155478,301.011636 142.155478,299.212212 C142.155478,297.410484 214.112844,295.9509 302.876735,295.9509 C391.639474,295.9509 463.596839,297.410484 463.596839,299.212212 C463.596839,301.011636 391.639474,302.47122 302.876735,302.47122" id="Fill-478" fill-opacity="0.0886418269" fill="#000000"></path>
                    <polyline id="Fill-479" fill="#F1C8A1" points="314.323005 250.698043 311.864637 258.378426 301.436735 259.952058 304.358206 246.896444 314.323005 250.698043"></polyline>
                    <polyline id="Fill-480" fill="#F1C8A1" points="343.699001 250.525243 340.703801 258.301242 330.386491 259.952058 333.999162 246.446012 343.699001 250.525243"></polyline>
                    <polyline id="Fill-481" fill="#F1C8A1" points="346.87852 119.49563 358.744119 120.471374 353.790519 128.089549 338.987321 126.603469 346.87852 119.49563"></polyline>
                    <path d="M272.317635,89.1542586 C273.964995,93.67701 287.876545,119.879246 293.175744,123.369806 C298.474943,126.861517 342.354617,128.810701 343.391417,128.081485 C345.750712,124.353613 350.281528,118.51643 350.281528,118.51643 C350.281528,118.51643 311.903805,111.383247 302.918207,108.618448 C293.932608,105.853648 291.57792,71.3731412 290.058433,67.2420698 C287.600065,60.5604708 260.797637,57.5364712 272.317635,89.1542586" id="Fill-482" fill="#EBE7E7"></path>
                    <path d="M330.199867,259.222842 L328.587067,265.558841 L364.875062,266.134841 C359.921462,258.243642 343.216313,256.45113 343.216313,256.45113 L330.199867,259.222842" id="Fill-483" fill="#44424F"></path>
                    <path d="M286.471105,203.74829 C286.471105,203.74829 300.761663,196.412355 297.591359,179.782085 C296.644416,174.814662 294.075456,169.334599 291.029568,169.334599 L191.963343,169.334599 C185.658448,169.334599 183.221968,183.499589 183.221968,190.229572 L243.377095,190.229572 L286.471105,203.74829" id="Fill-484" fill="#5E5C66"></path>
                    <path d="M237.712712,262.344761 C237.712712,281.941431 221.826634,297.82866 202.228813,297.82866 C182.632144,297.82866 166.746066,281.941431 166.746066,262.344761 C166.746066,242.748092 182.632144,226.860863 202.228813,226.860863 C221.826634,226.860863 237.712712,242.748092 237.712712,262.344761" id="Fill-485" fill="#72707D"></path>
                    <path d="M182.22664,262.056761 C182.066512,273.103288 190.893135,282.189111 201.940813,282.348086 C212.988492,282.507062 222.073162,273.68044 222.232138,262.633913 C222.391114,251.586235 213.564492,242.501564 202.516813,242.341436 C191.470287,242.18246 182.385616,251.009083 182.22664,262.056761" id="Fill-486" fill="#FAF9F6"></path>
                    <path d="M187.196367,262.128185 C187.07656,270.430648 193.709775,277.257399 202.012237,277.377207 C210.3147,277.497015 217.142603,270.8638 217.261259,262.561337 C217.381067,254.258875 210.747852,247.432124 202.445389,247.312316 C194.142926,247.192508 187.316175,253.825723 187.196367,262.128185" id="Fill-487" fill="#D0D1CB"></path>
                    <path d="M452.445481,262.344761 C452.445481,281.941431 436.559288,297.82866 416.961467,297.82866 C397.364913,297.82866 381.478835,281.941431 381.478835,262.344761 C381.478835,242.748092 397.364913,226.860863 416.961467,226.860863 C436.559288,226.860863 452.445481,242.748092 452.445481,262.344761" id="Fill-488" fill="#72707D"></path>
                    <path d="M396.959409,262.056761 C396.799281,273.103288 405.625904,282.189111 416.673582,282.348086 C427.721145,282.507062 436.805931,273.68044 436.964907,262.633913 C437.123883,251.586235 428.29726,242.501564 417.250734,242.341436 C406.203056,242.18246 397.118385,251.009083 396.959409,262.056761" id="Fill-489" fill="#FAF9F6"></path>
                    <path d="M401.929136,262.128185 C401.809328,270.430648 408.442543,277.257399 416.745006,277.377207 C425.047469,277.497015 431.875372,270.8638 431.994028,262.561337 C432.113836,254.258875 425.480621,247.432124 417.178158,247.312316 C408.875695,247.192508 402.048944,253.825723 401.929136,262.128185" id="Fill-490" fill="#D0D1CB"></path>
                    <path d="M389.71333,235.238205 C389.82853,235.323453 398.967345,248.489659 400.244912,250.350139 C403.312688,254.819898 406.30328,259.19865 408.891823,262.989881 C411.306415,266.526521 415.397166,267.859385 418.03755,265.970105 L418.041006,265.967801 C420.537389,264.182201 420.869165,260.12601 418.80363,256.644666 L405.18584,233.687614 C402.946352,229.913662 395.795889,218.772672 392.134834,217.851072 L394.456113,225.147839 L389.71333,235.238205" id="Fill-491" fill="#5E5C66"></path>
                    <path d="M161.366227,231.255742 C159.816787,236.973117 157.321556,242.380604 154.836692,247.756988 C153.933524,249.713083 153.024596,251.677243 151.826517,253.468603 C150.356565,255.665466 148.473045,257.566266 147.061845,259.801146 C149.017941,261.083322 151.647957,260.346042 153.72386,259.268922 C161.933011,255.008826 167.236818,245.693756 166.709202,236.460477 C166.614738,234.791229 166.323283,233.072446 165.390163,231.685438" id="Fill-492" fill="#5E5C66"></path>
                    <path d="M399.345201,210.493249 C399.345201,210.493249 439.673259,205.751618 449.240617,230.50579 C449.707062,231.710782 448.627753,232.945726 447.367466,232.658878 C408.666031,223.838015 378.320052,256.15737 378.320052,256.15737 L399.345201,210.493249" id="Fill-493" fill="#F16654"></path>
                    <path d="M252.133446,246.466748 C251.937606,246.573884 228.594633,247.942459 225.307978,248.110651 C217.408715,248.515003 209.683404,248.885947 202.994893,249.205051 C196.755662,249.503419 191.921871,255.135546 192.185679,261.797561 L192.185679,261.807929 C192.434511,268.104761 197.16923,273.143608 203.068621,273.39244 L241.96244,275.027128 C248.357191,275.295544 267.655492,275.146936 271.648323,269.807416 L260.852933,265.806521 L252.133446,246.466748" id="Fill-494" fill="#5E5C66"></path>
                    <path d="M384.830003,114.269007 C384.830003,114.269007 392.834098,116.001615 393.908913,127.396045 C394.983729,138.790475 384.886451,143.184203 384.886451,143.184203 L384.830003,114.269007" id="Fill-495" fill="#FFFFFE"></path>
                    <path d="M385.234355,114.811599 L385.288499,142.532171 C386.153651,142.064459 387.883954,141.006923 389.52901,139.263947 C392.601394,136.007244 393.940017,132.027084 393.506865,127.434061 C392.966578,121.706318 390.614194,118.540622 388.736434,116.894415 C387.313714,115.647951 385.940531,115.055823 385.234355,114.811599 Z M384.484403,143.799371 L384.425651,113.769039 L384.915251,113.875023 C385.000499,113.893455 387.042994,114.351951 389.230642,116.256207 C391.235122,117.999182 393.743025,121.339982 394.309809,127.359181 C394.878897,133.39566 392.330674,137.478348 390.09349,139.841099 C387.67429,142.393931 385.153715,143.507915 385.047731,143.553995 L384.484403,143.799371 L384.484403,143.799371 Z" id="Fill-496" fill="#72707D"></path>
                    <path d="M369.531445,94.6251058 C369.405877,100.670801 366.844981,105.52072 363.811766,105.45736 C360.77855,105.395152 358.421559,100.442705 358.547127,94.3958579 C358.672695,88.3501627 361.23359,83.5002434 364.266806,83.5636034 C367.300021,83.6258114 369.657013,88.5782587 369.531445,94.6251058" id="Fill-497" fill="#1D475A"></path>
                    <path d="M154.33442,228.830782 L154.787156,223.606463 L268.664644,237.265725 C275.270211,238.092861 279.862082,244.684604 278.70317,251.677243 L278.177858,254.84409 L157.023188,236.050365 C153.39554,235.487037 153.998036,232.72915 154.33442,228.830782" id="Fill-498" fill="#F1AA5C"></path>
                    <path d="M375.672756,144.565451 L385.445171,145.794634 C386.146739,145.882186 386.778034,145.36609 386.832188,144.662219 C386.832188,144.662219 386.847154,111.422415 385.694003,110.928207 C377.628852,107.472208 357.623223,116.026959 357.623223,116.026959 C353.158071,116.433615 349.526968,120.247886 349.184824,124.881229 C349.18252,124.914637 349.181368,124.946893 349.181368,124.980301 L349.132958,141.179723 C349.131832,141.355979 349.168696,141.527627 349.238968,141.685451 C357.571383,143.414603 365.906101,144.96865 374.313396,146.073418 C374.121012,145.275082 374.784564,144.453707 375.672756,144.565451" id="Fill-499" fill="#F16654"></path>
                    <path d="M403.118,195.281091 C402.49016,193.136067 384.547763,163.530824 374.45394,146.419018 C374.387124,146.306122 374.341044,146.18977 374.313396,146.073418 C365.906101,144.96865 357.571383,143.414603 349.238968,141.685451 C349.282744,141.784523 349.340344,141.877835 349.409464,141.963083 C349.811512,142.457291 350.62828,143.475659 351.708856,144.900683 C356.095671,150.68833 364.837046,163.18868 367.852981,174.539334 C372.354997,191.474884 373.364148,207.374785 373.026612,222.869183 C372.719028,236.973117 359.441078,259.628346 357.059895,263.580857 C356.836407,263.951801 356.435511,264.178745 356.002359,264.178745 L295.423296,264.178745 C294.874944,264.178745 294.392256,263.818169 294.237888,263.291705 C293.355456,260.288442 290.279616,249.858235 285.756865,235.074621 C281.745602,221.960255 285.974593,212.917057 286.357057,206.176706 C286.489537,203.841602 286.161217,201.782978 284.868673,199.927106 C270.655299,179.521733 187.098448,189.326404 184.28296,189.662788 C184.234576,189.668548 184.186192,189.677764 184.13896,189.689284 C155.291732,196.564419 153.72386,226.738751 153.700811,232.771774 C153.700811,233.376574 154.133972,233.893822 154.730708,233.995198 L247.103815,249.637051 C247.500103,249.703867 254.424774,263.715641 254.424774,263.715641 C257.575493,270.396088 260.433605,274.4638 264.230596,276.922167 C268.002244,279.364407 272.357955,280.567095 276.768962,280.639671 C289.468609,280.847031 337.942458,280.828599 344.584889,280.481847 C353.640759,280.008375 360.731318,281.305527 369.165109,276.338103 C377.600052,271.37068 401.980976,233.31091 404.063677,219.133248 C405.849392,206.979649 404.16632,198.868419 403.118,195.281091" id="Fill-500" fill="#F16654"></path>
                    <path d="M362.706998,104.578384 C362.80607,104.78344 362.90399,104.989648 362.992694,105.199312 C362.88095,104.9332 363.060662,105.379024 363.075638,105.419344 C363.217334,105.79144 363.342902,106.169296 363.454646,106.55176 C363.660854,107.26024 363.81983,107.986 363.92351,108.716368 C363.875126,108.37768 363.943094,108.91912 363.944246,108.935248 C363.964982,109.133392 363.98111,109.331536 363.993782,109.530832 C364.017974,109.899472 364.029494,110.270416 364.029494,110.640207 C364.029494,111.038799 364.014518,111.438543 363.985718,111.835983 C363.973046,112.006479 363.95807,112.176975 363.94079,112.347471 C363.92927,112.460367 363.916598,112.573263 363.902774,112.687311 C363.92351,112.538703 363.924662,112.527183 363.90623,112.651599 C363.79103,113.411919 363.627446,114.165327 363.412022,114.904911 C363.316406,115.232079 363.210422,115.558095 363.09407,115.879503 C363.016886,116.092623 362.936246,116.305743 362.849846,116.516559 C362.959286,116.249295 362.77151,116.690511 362.753078,116.730831 C362.445494,117.402447 362.090678,118.053326 361.693238,118.675406 C361.196726,119.450702 361.012406,119.684558 360.405302,120.356174 C359.779766,121.047374 359.722166,122.11643 360.405302,122.799566 C361.041206,123.434318 362.220854,123.494222 362.849846,122.799566 C367.714741,117.417423 368.835637,109.35688 365.690677,102.833105 C365.286326,101.993297 364.085942,101.769809 363.326774,102.213329 C362.467382,102.715601 362.300342,103.733969 362.706998,104.578384" id="Fill-501" fill="#1D475A"></path>
                    <path d="M152.899028,235.192125 C152.899028,235.192125 158.518484,204.332354 177.315665,201.238082 C196.113998,198.143811 252.392646,196.653123 260.530373,207.657025 C268.6681,218.660928 267.52186,254.104507 267.52186,254.104507 L152.899028,235.192125" id="Fill-502" fill="#E65845"></path>
                    <path d="M210.353868,190.420804 C209.678796,188.222788 209.131596,185.924549 208.25838,183.795653 C207.783756,182.637893 207.184717,181.522757 206.191693,180.722117 C205.217101,179.936453 204.126157,179.427269 202.931533,179.055174 C200.824526,178.397382 198.691022,177.807558 196.574798,177.18087 C194.448206,176.551878 192.306639,175.960902 190.127055,175.55079 C187.043152,174.96903 183.945424,174.845766 180.8212,174.763974 C178.254545,174.696006 175.686737,174.655686 173.11893,174.626886 C166.84629,174.55431 160.571347,174.54855 154.298708,174.566982 C147.754197,174.587718 141.209686,174.638406 134.666327,174.716742 C129.462744,174.780102 124.259161,174.856134 119.056729,174.98055 C118.570585,174.99207 118.084442,175.00359 117.59945,175.016262 C116.40137,175.048518 115.250522,176.048454 115.30697,177.308742 C115.361114,178.524102 116.31497,179.635781 117.59945,179.601221 C122.453977,179.473349 127.309656,179.398469 132.165336,179.333957 C138.515159,179.248709 144.864982,179.193414 151.214805,179.163462 C157.557716,179.134662 163.900627,179.131206 170.243538,179.183046 C175.085393,179.222214 179.936465,179.253317 184.773712,179.482565 C185.312848,179.507909 185.851984,179.547077 186.388816,179.600069 C186.671056,179.627717 186.953296,179.659973 187.234383,179.694533 C187.319631,179.704901 187.684815,179.763653 187.253967,179.696837 C187.392207,179.717573 187.531599,179.737157 187.669839,179.757893 C188.768847,179.928389 189.858639,180.149573 190.941519,180.405317 C193.039311,180.899525 195.104846,181.523909 197.16923,182.144837 C198.227918,182.463941 199.286606,182.783045 200.351054,183.086021 C200.834894,183.224261 201.322189,183.350981 201.801421,183.504197 C202.039885,183.580229 202.274893,183.665477 202.508749,183.754181 C202.056013,183.582533 202.656205,183.835973 202.800205,183.917765 C202.908493,183.978821 203.009869,184.045637 203.114701,184.108997 C203.467213,184.320965 203.160781,184.142405 203.092813,184.080197 C203.275981,184.247237 203.445325,184.417733 203.607757,184.604357 C203.322061,184.273733 203.614669,184.653893 203.707981,184.818629 C203.767885,184.924613 203.824333,185.032901 203.878477,185.142341 C203.930317,185.248325 204.070861,185.649221 203.907277,185.186117 C204.263245,186.194116 204.573133,187.214788 204.887629,188.237764 C205.235533,189.371332 205.584589,190.506052 205.932493,191.63962 C206.283853,192.784708 207.549901,193.630275 208.752588,193.240899 C209.90574,192.867652 210.730572,191.648836 210.353868,190.420804" id="Fill-503" fill="#55545C"></path>
                    <path d="M157.812308,179.981381 C159.313364,184.110149 160.399699,188.382916 161.030995,192.730564 C161.051731,192.875716 161.072467,193.020867 161.093203,193.166019 C161.059795,192.920644 161.062099,192.933316 161.096659,193.202883 C161.141587,193.547331 161.186515,193.891779 161.234899,194.235075 C161.312083,194.797251 161.400787,195.360579 161.563219,195.904323 C161.860435,196.895043 162.306259,197.628867 162.988243,198.397251 C164.015827,199.556163 165.392467,200.733506 166.894674,201.201218 C168.039762,201.558338 169.445202,200.779586 169.71477,199.599939 C169.998162,198.355779 169.339218,197.162307 168.11349,196.780995 C167.818578,196.688835 168.711378,197.112771 168.226386,196.827075 C168.12501,196.767171 168.022482,196.711875 167.922258,196.649667 C167.772498,196.555203 167.62965,196.451523 167.484498,196.350147 C167.075538,196.065603 167.884242,196.691139 167.493714,196.354755 C167.229906,196.127811 166.966098,195.904323 166.716114,195.662403 C166.500691,195.451587 166.300243,195.140547 166.061779,194.959683 C166.292179,195.266115 166.340563,195.328323 166.205779,195.144003 C166.165459,195.087555 166.126291,195.029955 166.090579,194.971203 C165.994963,194.846787 165.771475,194.676291 166.119379,195.087555 C165.868243,194.789187 165.817555,194.033475 165.750739,193.649859 C165.727699,193.509315 165.705811,193.368771 165.685075,193.228227 C165.713875,193.449411 165.717331,193.475907 165.695443,193.308867 C165.645907,192.927556 165.595219,192.545092 165.543379,192.164932 C165.474259,191.6569 165.400531,191.15002 165.319891,190.644292 C164.674771,186.595012 163.634515,182.616005 162.233683,178.762566 C161.824723,177.638214 160.657747,176.759238 159.413588,177.161286 C158.30882,177.518406 157.374548,178.775238 157.812308,179.981381" id="Fill-504" fill="#55545C"></path>
                    <path d="M196.078286,106.919248 L196.078286,170.235463 C196.078286,172.957638 193.731663,175.16487 190.836687,175.16487 L119.842393,175.16487 C116.94857,175.16487 114.600794,172.957638 114.600794,170.235463 L114.600794,106.919248 C114.600794,104.197072 116.94857,101.989841 119.842393,101.989841 L190.836687,101.989841 C193.731663,101.989841 196.078286,104.197072 196.078286,106.919248" id="Fill-505" fill="#72707D"></path>
                    <g id="Group-9" transform="translate(141.000000, 126.000000)">
                        <path d="M27.7724241,0.22804446 C27.9216797,0.930533397 28.0002352,1.65923345 28.0002352,2.40621128 C28.0002352,8.16495611 23.3319349,12.8332564 17.5732679,12.8332564 C16.8259789,12.8332564 16.0970455,12.7546231 15.3943233,12.6052897 C15.2450677,11.902723 15.1665121,11.174023 15.1665121,10.4270452 C15.1665121,4.66830032 19.8348125,0 25.5934795,0 C26.3407685,0 27.0697018,0.0786333387 27.7724241,0.22804446 Z" id="Path" fill="#81C341"></path>
                        <path d="M13.9999232,22.399846 C9.36078953,22.399846 5.60000038,18.6390568 5.60000038,13.9999232 C5.60000038,9.36078953 9.36078953,5.60000038 13.9999232,5.60000038 L13.9999232,9.94759898e-15 C6.26795598,9.94759898e-15 9.20152905e-14,6.26795598 9.20152905e-14,13.9999232 C9.20152905e-14,21.7318126 6.26795598,27.9998464 13.9999232,27.9998464 C21.7318126,27.9998464 27.9998464,21.7318126 27.9998464,13.9999232 C24.2665128,10.9071674 22.399846,10.9071674 22.399846,13.9999232 C22.399846,18.6390568 18.6390568,22.399846 13.9999232,22.399846 Z" id="Path" fill="#F76754"></path>
                    </g>
                    <path d="M196.078286,106.919248 L196.078286,113.131983 L114.600794,113.131983 L114.600794,106.919248 C114.600794,104.197072 116.94857,101.989841 119.842393,101.989841 L190.836687,101.989841 C193.731663,101.989841 196.078286,104.197072 196.078286,106.919248" id="Fill-506" fill="#F76754"></path>
                    <path d="M196.078286,222.606527 C201.700045,223.180223 207.321805,223.755071 212.943564,224.328767 C214.383564,224.475071 215.823563,224.622527 217.263563,224.768831 C217.727819,224.816063 218.127563,224.337983 218.127563,223.904831 C218.127563,223.397951 217.730123,223.088063 217.263563,223.040831 C211.641804,222.467135 206.020045,221.893439 200.398286,221.319743 C198.958286,221.172287 197.518286,221.025983 196.078286,220.878527 C195.61403,220.831295 195.214286,221.310527 195.214286,221.742527 C195.214286,222.249407 195.612878,222.559295 196.078286,222.606527" id="Fill-507" fill="#F4857A"></path>
                    <path d="M194.67515,226.330943 C200.29691,226.904639 205.918669,227.478334 211.540428,228.05203 C212.980428,228.199486 214.420428,228.34579 215.860427,228.493246 C216.324683,228.540478 216.724427,228.061246 216.724427,227.629246 C216.724427,227.122367 216.325835,226.812479 215.860427,226.765247 C210.238668,226.191551 204.616909,225.617855 198.99515,225.044159 C197.55515,224.896703 196.11515,224.749247 194.67515,224.602943 C194.210894,224.555711 193.811151,225.033791 193.811151,225.466943 C193.811151,225.973823 194.209742,226.283711 194.67515,226.330943" id="Fill-508" fill="#F4857A"></path>
                    <path d="M193.272015,230.054206 C198.893774,230.627902 204.515533,231.20275 210.137292,231.776446 C211.577292,231.92275 213.017292,232.070206 214.457292,232.21651 C214.921547,232.263742 215.321291,231.785662 215.321291,231.35251 C215.321291,230.84563 214.922699,230.536894 214.457292,230.48851 C208.835532,229.914814 203.213773,229.341118 197.592014,228.767422 C196.152014,228.621118 194.712014,228.473662 193.272015,228.326206 C192.807759,228.278974 192.408015,228.758206 192.408015,229.190206 C192.408015,229.697086 192.805455,230.006974 193.272015,230.054206" id="Fill-509" fill="#F4857A"></path>
                    <path d="M173.472593,202.385474 C173.994449,202.125122 174.549713,201.937346 175.107281,201.76685 C175.666001,201.598658 176.231633,201.451202 176.799569,201.318722 C177.935441,201.054914 179.082833,200.842946 180.232529,200.644802 C182.53192,200.253122 184.846288,199.959362 187.161808,199.692099 C189.478479,199.434051 191.799759,199.224387 194.123342,199.037763 C196.446926,198.852291 198.773966,198.714051 201.101005,198.591939 C202.265677,198.532035 203.429197,198.476739 204.593869,198.429507 C205.758541,198.384579 206.923213,198.350019 208.089036,198.320067 C210.419532,198.259011 212.750028,198.225603 215.082827,198.216387 C217.414475,198.210627 219.746123,198.245187 222.078922,198.306243 C224.411722,198.367299 226.74337,198.461763 229.075017,198.598851 C231.405513,198.746307 233.734857,198.935235 236.060744,199.187523 C236.641352,199.249731 237.223112,199.320003 237.80372,199.389123 L239.53748,199.613763 C240.688328,199.762371 241.843784,199.901762 243.000391,200.059586 C245.312455,200.371778 247.638343,200.721986 249.936582,201.284162 C251.083974,201.566402 252.224454,201.900482 253.33959,202.322114 C254.452422,202.744898 255.541062,203.24717 256.573253,203.854274 C258.641093,205.062722 260.477381,206.703169 261.832133,208.680001 C262.177733,209.169601 262.478405,209.685697 262.76986,210.204097 C262.906948,210.467905 263.0521,210.728257 263.177668,210.997825 L263.371204,211.398721 L263.552068,211.804225 C263.675332,212.073793 263.779012,212.350273 263.894212,212.623297 C263.995588,212.899777 264.107332,213.173953 264.201796,213.452737 L264.346948,213.870912 L264.482884,214.291392 C264.576196,214.570176 264.655684,214.853568 264.738628,215.135808 C265.37338,217.401792 265.775428,219.712704 266.04154,222.031679 C266.17402,223.190591 266.274244,224.352959 266.354884,225.515327 C266.432068,226.677695 266.486212,227.840062 266.534596,229.003582 C266.417092,227.845822 266.293828,226.688063 266.148676,225.534911 C266.008132,224.380607 265.853764,223.228607 265.663684,222.084671 C265.28698,219.795648 264.8089,217.522752 264.092356,215.3328 C263.73178,214.240704 263.329732,213.162433 262.83322,212.132545 L262.646597,211.746625 L262.448453,211.367617 C262.320581,211.113025 262.173125,210.869953 262.034885,210.621121 C261.739973,210.136129 261.439301,209.654593 261.098309,209.204161 L260.972741,209.032513 L260.841413,208.866625 L260.578757,208.536001 C260.396741,208.320577 260.211269,208.107457 260.020037,207.900097 C259.637573,207.484225 259.233221,207.091393 258.808133,206.720449 C257.957957,205.980866 257.028293,205.334594 256.041029,204.787394 C255.054918,204.23789 254.012358,203.784002 252.94215,203.404994 C251.87079,203.027138 250.771782,202.714946 249.656646,202.459202 C247.425223,201.94541 245.136199,201.632066 242.834503,201.353282 L239.37044,200.936258 L237.64244,200.720834 C237.067592,200.654018 236.493896,200.587202 235.917896,200.529602 C233.616201,200.289986 231.305289,200.11373 228.990921,199.977794 C224.363338,199.687491 219.720779,199.563075 215.078219,199.525059 C212.755788,199.502019 210.433356,199.502019 208.112076,199.530819 C206.950861,199.543491 205.789645,199.565379 204.628429,199.588419 C203.467213,199.608003 202.305997,199.636803 201.144781,199.669059 C199.983566,199.701315 198.82235,199.742787 197.662286,199.787715 L194.180942,199.942082 C191.860815,200.052674 189.540687,200.190914 187.225167,200.36717 C184.907344,200.535362 182.594128,200.74733 180.287825,201.02381 C179.134673,201.163202 177.983825,201.319874 176.841041,201.523778 C176.268497,201.621698 175.699409,201.733442 175.134929,201.867074 C174.570449,202.00301 174.008273,202.156226 173.472593,202.385474" id="Fill-510" fill="#F4857A"></path>
                    <path d="M156.178772,219.337152 C154.24802,218.945472 153.116756,215.88 153.650132,212.489665 C154.18466,209.098177 156.182228,206.667458 158.11298,207.059137 L156.178772,219.337152" id="Fill-511" fill="#E65845"></path>
                    <path d="M156.289364,205.866698 L161.146195,205.97741 C161.146195,205.97741 158.109524,218.845248 156.228308,220.064064 C154.347092,221.282879 154.946132,219.08832 154.946132,219.08832 L157.939028,208.113217 L156.023252,206.795329 C155.62466,206.520002 155.81474,205.85645 156.289364,205.866698" id="Fill-512" fill="#5E5C66"></path>
                    <path d="M404.624816,209.282497 C405.327536,212.384833 405.47384,215.628864 405.140912,218.827968 C404.971568,220.428095 404.677808,222.019007 404.250416,223.578815 C404.040752,224.358719 403.788464,225.129407 403.511984,225.890879 C403.373744,226.271039 403.22168,226.646591 403.065008,227.020991 C402.987824,227.208767 402.903728,227.393086 402.823088,227.57971 L402.575408,228.124606 C401.242544,231.020734 399.748401,233.833918 398.122929,236.567613 C396.492849,239.297853 394.736049,241.95782 392.746546,244.44038 C394.252209,241.64102 395.734833,238.853181 397.169073,236.041149 C398.604465,233.23027 399.999536,230.403262 401.32088,227.547454 L401.567408,227.012927 C401.645744,226.836671 401.726384,226.661567 401.801264,226.483007 C401.95448,226.128191 402.097328,225.769919 402.239024,225.409343 C402.520112,224.689343 402.76664,223.955519 402.99704,223.214783 C403.45208,221.733311 403.806896,220.216128 404.070704,218.67936 C404.601776,215.604672 404.761904,212.456257 404.624816,209.282497" id="Fill-513" fill="#F4857A"></path>
                    <path d="M379.938611,232.653118 C377.997492,239.588157 366.115765,268.295993 356.784567,269.00332 C346.790968,269.092024 316.685757,268.878904 294.580032,268.295993 C286.905409,268.093241 283.364161,248.072635 280.68461,239.225277 C276.002883,223.775807 275.918787,205.571906 286.357057,206.176706 C285.974593,212.917057 281.745602,221.960255 285.756865,235.074621 C290.279616,249.858235 293.355456,260.288442 294.237888,263.291705 C294.392256,263.818169 294.874944,264.178745 295.423296,264.178745 L356.002359,264.178745 C356.435511,264.178745 356.836407,263.951801 357.059895,263.580857 C359.441078,259.628346 372.719028,236.973117 373.026612,222.869183 C373.364148,207.374785 372.354997,191.474884 367.852981,174.539334 C364.837046,163.18868 354.972471,148.406218 349.28044,141.768395 C355.333047,144.120779 366.265525,152.551113 371.177653,163.9202 C379.241652,182.582597 384.085811,217.840704 379.938611,232.653118" id="Fill-514" fill="#E14A36"></path>
                    <path d="M349.238968,141.685451 C351.362104,141.861707 353.467959,142.133579 355.570359,142.426187 C357.670455,142.725707 359.765942,143.060939 361.85567,143.426123 C363.945398,143.790155 366.029365,144.187595 368.106421,144.619595 C370.183477,145.057354 372.257077,145.518154 374.313396,146.073418 C372.190261,145.898314 370.084405,145.627594 367.982005,145.333834 C365.880757,145.034314 363.786422,144.699083 361.696694,144.332747 C359.606966,143.966411 357.522999,143.570123 355.445943,143.138123 C353.368887,142.700363 351.295288,142.239563 349.238968,141.685451" id="Fill-515" fill="#F4857A"></path>
                    <path d="M381.069875,110.478928 C380.574515,119.479502 380.651699,128.512333 381.285299,137.503692 C381.465011,140.064587 381.693107,142.620875 381.966131,145.173706 C382.044467,145.902922 383.197619,145.910986 383.118131,145.173706 C382.158515,136.211148 381.770291,127.185229 381.937331,118.173134 C381.985715,115.606479 382.080179,113.042127 382.221875,110.478928 C382.262195,109.738192 381.110195,109.740496 381.069875,110.478928" id="Fill-516" fill="#F4857A"></path>
                    <path d="M408.395311,217.032 C419.698734,215.909952 431.6323,217.340736 441.16625,223.947455 C443.598122,225.631679 445.799594,227.63155 447.691178,229.905598 C447.92849,230.191294 448.333993,229.782334 448.098985,229.498942 C440.909355,220.853183 429.768364,216.809664 418.787502,216.189888 C415.322286,215.994048 411.847855,216.113856 408.395311,216.456 C408.030127,216.492864 408.025519,217.068864 408.395311,217.032" id="Fill-517" fill="#F4857A"></path>
                    <path d="M290.202432,274.103224 C299.478335,274.254136 308.75539,274.317496 318.032444,274.338232 C327.271483,274.358968 336.510522,274.338232 345.74956,274.322104 C348.08812,274.317496 350.425528,274.31404 352.764087,274.310584 C354.924087,274.30828 357.101367,274.390072 359.259062,274.300216 C361.41791,274.21036 363.440822,273.24844 365.171126,272.006584 C369.260725,269.070136 372.335413,264.781241 374.98386,260.562618 C376.71762,257.802426 378.339636,254.932794 379.705907,251.969851 C379.727795,251.921467 379.750835,251.873083 379.772723,251.824699 C379.968563,251.397307 379.891379,250.899643 379.462835,250.642747 C379.093044,250.421563 378.47442,250.529851 378.280884,250.952635 C377.170356,253.381051 375.8709,255.735738 374.506932,258.028218 C372.025525,262.204217 369.193909,266.392889 365.481014,269.57932 C363.928118,270.912184 362.157494,272.066488 360.164534,272.46508 C359.72447,272.552632 359.284406,272.577976 358.745271,272.577976 C357.594423,272.58028 356.444727,272.579128 355.295031,272.58028 C352.994487,272.582584 350.693944,272.584888 348.394552,272.589496 C339.270713,272.604472 330.146875,272.628664 321.023036,272.615992 C311.899197,272.60332 302.775359,272.556088 293.652672,272.427064 C292.502976,272.410936 291.35328,272.393656 290.202432,272.375224 C289.090753,272.356792 289.090753,274.084792 290.202432,274.103224" id="Fill-518" fill="#F4857A"></path>
                    <path d="M308.332606,28.2467603 C307.912126,39.8578818 304.672702,59.133143 293.053632,59.133143 C281.435714,59.133143 272.015811,49.7143924 272.015811,38.0953221 C272.015811,26.476367 275.516739,14.1923623 287.135809,14.1923623 C298.754879,14.1923623 308.80723,15.1139622 308.332606,28.2467603" id="Fill-519" fill="#F1C8A1"></path>
                    <path d="M287.643841,147.599818 C287.643841,147.599818 336.277818,146.073418 349.132984,153.249225 C367.899061,163.72436 344.226617,254.104507 344.226617,254.104507 L328.847419,256.15737 L331.785018,217.18176 L335.413818,177.185478 C335.413818,177.185478 296.795328,167.590471 286.471105,168.454471 C276.146883,169.318471 260.767685,166.380871 261.458885,162.580424 C262.150085,158.778824 287.643841,147.599818 287.643841,147.599818" id="Fill-520" fill="#5268A1"></path>
                    <path d="M243.791815,157.661385 C243.791815,157.661385 239.644616,171.190471 250.704966,172.91847 C261.765317,174.64647 318.033596,174.30087 318.033596,174.30087 C318.033596,174.30087 304.277566,223.379519 299.093567,255.400506 C306.225598,254.163259 316.939197,252.809659 316.939197,252.809659 C316.939197,252.809659 344.847545,179.736005 346.099768,171.536071 C347.335864,163.444424 350.774584,144.758987 290.884416,147.869386 C290.884416,147.869386 267.897412,150.704458 243.791815,157.661385" id="Fill-521" fill="#8598CB"></path>
                    <path d="M300.614207,259.222842 L299.001407,265.558841 L335.289402,266.134841 C330.335803,258.243642 313.630653,256.45113 313.630653,256.45113 L300.614207,259.222842" id="Fill-522" fill="#5E5C66"></path>
                    <path d="M255.605574,68.7961176 C247.426375,82.2606916 235.495112,119.70875 239.558216,161.533256 C245.087815,175.358406 268.066756,151.286218 293.019072,147.496138 C293.019072,141.971147 283.449409,119.77211 290.698944,83.3954115 C294.3888,64.8827742 286.893889,59.083607 278.643266,57.8521192 C269.48026,56.4846954 260.415173,60.8784227 255.605574,68.7961176" id="Fill-523" fill="#88CBB9"></path>
                    <path d="M272.864835,44.0269692 C273.633219,51.3237361 270.738243,59.005271 270.738243,59.005271 C270.738243,59.005271 276.661826,65.4829661 285.714241,68.2500697 C285.822529,63.2999264 287.135809,53.8212718 287.135809,53.8212718 C287.135809,53.8212718 279.373634,51.1693682 272.864835,44.0269692" id="Fill-524" fill="#F1C8A1"></path>
                    <path d="M335.840058,124.294862 C335.840058,124.294862 334.223802,134.63406 327.571003,135.49806 C327.571003,135.49806 324.871867,131.178061 335.840058,124.294862" id="Fill-525" fill="#2D3071"></path>
                    <polyline id="Fill-526" fill="#F1C8A1" points="331.199803 125.590861 342.799289 127.308493 338.111802 136.24686 323.308604 134.40366 331.199803 125.590861"></polyline>
                    <path d="M259.142213,94.5110578 C260.789573,99.0338092 274.701123,125.234893 280.000322,128.726605 C285.299521,132.218316 326.534203,136.227276 327.571003,135.49806 C326.188603,130.890061 336.018618,124.170446 336.018618,124.170446 C336.018618,124.170446 303.866302,118.691534 294.880704,115.926735 C285.895105,113.161935 278.402498,76.7299404 276.88301,72.598869 C274.424643,65.91727 247.622215,62.8921185 259.142213,94.5110578" id="Fill-527" fill="#F2F2F2"></path>
                    <path d="M302.664767,37.7209221 C303.026495,39.4604419 303.230399,41.2253056 303.258047,43.0016894 C303.270719,43.8230652 303.390527,44.9589371 302.293823,45.0591611 C301.427519,45.138649 300.479423,44.8391291 299.701823,44.4854651 C299.366591,44.3334012 299.073983,44.8287611 299.410367,44.9831291 C300.699455,45.569497 303.467711,46.3885689 303.794879,44.2792572 C303.959614,43.2182653 303.823679,42.0432255 303.730367,40.9799296 C303.628991,39.8336898 303.455039,38.695514 303.220031,37.5688581 C303.145151,37.2059782 302.589887,37.3591942 302.664767,37.7209221" id="Fill-528" fill="#1D475A"></path>
                    <path d="M291.072192,48.1856886 C293.555904,49.9540083 296.440512,51.1060082 299.461055,51.5287921 C300.185663,51.6301681 300.499007,50.5207923 299.767487,50.4182643 C296.83104,50.0070003 294.069696,48.9102965 291.653952,47.1915127 C291.049152,46.7606648 290.473152,47.7582967 291.072192,48.1856886" id="Fill-529" fill="#1D475A"></path>
                    <path d="M290.889024,48.1119606 C291.027264,47.7502327 291.281856,47.4449527 291.604416,47.2352887 C291.914304,47.0336888 291.626304,46.5337208 291.314112,46.7376248 C290.856768,47.0359928 290.528448,47.4507127 290.332608,47.9587446 C290.200128,48.3043446 290.756544,48.4541046 290.889024,48.1119606" id="Fill-530" fill="#1D475A"></path>
                    <path d="M340.088633,139.169483 C346.759864,137.885004 353.424183,136.567116 360.08159,135.214668 C361.16447,134.995788 362.278454,134.036172 362.822198,133.10766 C363.397046,132.125004 363.64127,130.676941 363.28415,129.575629 C362.924726,128.466253 362.238134,127.396045 361.177142,126.835021 C360.044726,126.237133 358.905398,126.117325 357.643959,126.373069 C350.986552,127.724365 344.322233,129.042253 337.651002,130.326733 C336.57273,130.534093 335.448378,131.515596 334.910394,132.43374 C334.335546,133.416396 334.091322,134.86446 334.448442,135.966924 C334.806714,137.0763 335.494458,138.146507 336.55545,138.706379 C337.693626,139.308875 338.821433,139.412555 340.088633,139.169483" id="Fill-531" fill="#1D475A"></path>
                    <path d="M339.827129,127.596493 C338.881337,127.915597 337.982778,128.431693 337.342266,129.196621 C336.701754,129.962701 335.211066,131.47182 335.667258,131.478732 C336.527802,131.493708 340.079417,131.749452 340.857017,132.119244 C341.620793,132.482124 341.912249,134.332236 342.529721,134.909388 C342.711737,135.079884 342.894905,135.252684 343.019321,135.468108 C343.140281,135.67662 343.199033,135.91278 343.295801,136.132812 C343.705913,137.062476 344.862521,137.585484 345.831352,137.279052 C346.441912,137.086668 346.96492,136.613196 347.60428,136.571724 C348.257464,136.530252 348.962488,136.94382 349.530424,136.617804 C350.035,136.3275 350.21356,135.539532 350.791864,135.466956 C351.098296,135.42894 351.378232,135.622476 351.67084,135.719244 C352.298679,135.927756 353.027895,135.661644 353.451831,135.153612 C353.875767,134.646732 354.015159,133.940556 353.920695,133.28622 C354.171831,133.761996 354.432183,134.249292 354.841143,134.598348 C355.250103,134.947404 355.847991,135.12942 356.336439,134.90478 C356.690103,134.742348 356.926263,134.401356 357.094455,134.049996 C357.718839,132.743628 357.587511,131.190733 357.158967,129.807181 C356.755767,128.510029 356.103735,127.291213 355.248951,126.237133 C354.962103,125.883469 354.603831,125.600077 354.263991,125.295949 C352.489911,123.714254 351.530296,124.601293 350.281528,125.078221 C349.03276,125.555149 347.521336,125.080525 346.211512,125.346637 C345.580216,125.474509 345.106744,126.653005 344.463929,126.671437 C343.582649,126.696781 342.757817,126.176077 341.929529,126.479053 C341.142713,126.767053 339.827129,127.596493 339.827129,127.596493" id="Fill-532" fill="#F1C8A1"></path>
                    <path d="M287.211841,44.1548412 C287.211841,44.1548412 300.538175,40.7783297 307.026238,40.0295298 C311.711421,47.3032567 305.370814,64.2860382 295.649088,61.3196387 C293.084736,60.5374308 287.889217,58.925783 286.635841,56.9904233 C283.245506,51.7568881 287.211841,44.1548412 287.211841,44.1548412" id="Fill-533" fill="#119477"></path>
                    <path d="M289.360321,44.5845371 C288.661057,44.4451451 288.058561,44.1225852 287.435329,43.7908092 C286.725697,43.4129533 286.016065,43.0350973 285.306433,42.6572414 C283.920577,41.9188095 282.534722,41.1815296 281.148866,40.4442497 C280.167362,39.9212418 279.294146,41.4119296 280.276802,41.9360895 C281.730626,42.7090814 283.183298,43.4832253 284.637121,44.2573692 C285.981505,44.9727611 287.388097,45.9508089 288.900673,46.2503289 C289.987009,46.4657528 290.451264,44.8011131 289.360321,44.5845371" id="Fill-534" fill="#119477"></path>
                    <path d="M287.164609,55.5872875 C285.244225,54.5193837 283.493185,53.1968879 281.78477,51.8214001 C281.008322,51.1958642 280.09133,50.5876082 279.491138,49.7789044 C278.902466,48.9851765 278.758466,47.9495286 278.632898,46.9956728 C278.571842,46.5325688 278.279234,46.1316729 277.768898,46.1316729 C277.34957,46.1316729 276.843842,46.5291128 276.904898,46.9956728 C277.052354,48.1131126 277.203266,49.2397684 277.748162,50.2466163 C278.32301,51.3076081 279.31949,52.036824 280.237634,52.7798639 C282.163778,54.3385197 284.121025,55.8718315 286.292545,57.0791273 C287.264833,57.6194152 288.138049,56.1275754 287.164609,55.5872875" id="Fill-535" fill="#119477"></path>
                    <path d="M289.574593,48.6038645 C292.698816,49.6948084 295.944,50.3744883 299.242175,50.6406002 C299.611967,50.6705522 299.609663,50.0945523 299.242175,50.0646003 C295.994688,49.8019444 292.803648,49.1222645 289.727809,48.0486006 C289.377601,47.9253366 289.226689,48.4817526 289.574593,48.6038645" id="Fill-536" fill="#1D475A"></path>
                    <path d="M289.097665,51.5979121 C292.318656,53.7797998 295.933632,55.3223276 299.737535,56.1413994 C300.098111,56.2185834 300.252479,55.6633195 299.889599,55.5861355 C296.130624,54.7762796 292.572096,53.2567919 289.387969,51.1014002 C289.080385,50.8928882 288.791233,51.3917041 289.097665,51.5979121" id="Fill-537" fill="#1D475A"></path>
                    <path d="M305.824702,50.1970803 C306.642622,50.0646003 307.428286,49.8388084 308.192062,49.5185524 C308.528446,49.3768564 308.38099,48.8192885 308.038846,48.9632885 C307.27507,49.2835444 306.489406,49.5093364 305.671486,49.6418164 C305.307454,49.7017204 305.461822,50.2558323 305.824702,50.1970803" id="Fill-538" fill="#1D475A"></path>
                    <path d="M311.449917,24.2056601 C310.513342,29.5176465 288.462913,27.2791956 285.167041,28.758709 C282.081986,35.7446664 288.068929,51.8340721 274.062915,51.1705202 C269.37082,51.1705202 257.714885,38.316506 257.714885,24.2477081 C257.714885,10.1794861 267.610564,1.88405054 283.267393,0.156050793 C297.251519,-1.38728338 310.62739,8.65389275 311.449917,24.2056601" id="Fill-539" fill="#EA5441"></path>
                    <path d="M311.144637,21.5043357 C311.455677,21.6080157 316.741053,27.8259348 316.741053,27.8259348 C316.741053,27.8259348 299.811263,31.2458767 289.104577,30.0022928 C278.396738,28.758709 279.416258,26.9969557 279.416258,26.9969557 L311.144637,21.5043357" id="Fill-540" fill="#81C341"></path>
                    <path d="M296.971584,35.2485001 C297.913919,35.2485001 298.679999,36.2050055 298.679999,37.3833862 C298.679999,38.561882 297.913919,39.5180419 296.971584,39.5180419 C296.028096,39.5180419 295.263168,38.561882 295.263168,37.3833862 C295.263168,36.2050055 296.028096,35.2485001 296.971584,35.2485001" id="Fill-541" fill="#1D475A"></path>
                    <path d="M306.890302,34.768577 C307.702462,34.768577 308.362558,35.6173704 308.362558,36.6625799 C308.362558,37.7082501 307.702462,38.557274 306.890302,38.557274 C306.07699,38.557274 305.416894,37.7082501 305.416894,36.6625799 C305.416894,35.6173704 306.07699,34.768577 306.890302,34.768577" id="Fill-542" fill="#1D475A"></path>
                    <path d="M293.292096,34.402817 C292.972992,34.402817 292.658496,34.2486794 292.467264,33.9633291 C292.161984,33.5082891 292.282944,32.8915084 292.737984,32.5858829 C293.994816,31.7421582 296.068416,31.0106383 297.867839,31.2783631 C298.409279,31.3591182 298.783679,31.864155 298.703039,32.4064013 C298.622399,32.9486476 298.116671,33.3231628 297.575231,33.2419468 C296.507328,33.0821644 294.938304,33.4999947 293.845056,34.2341642 C293.67456,34.3482122 293.482176,34.402817 293.292096,34.402817" id="Fill-543" fill="#1D475A"></path>
                    <path d="M308.327998,33.8309643 C308.120638,33.8309643 307.912126,33.7662219 307.733566,33.6322443 C307.196734,33.2297356 306.224446,32.9347084 305.469886,32.951758 C304.918078,32.9583244 304.468798,32.5265549 304.45843,31.9784334 C304.44691,31.4303118 304.883518,30.9774607 305.430718,30.9667471 C306.42835,30.9447439 307.89715,31.2731791 308.924734,32.0444429 C309.363646,32.3735693 309.45235,32.9956492 309.122878,33.4341003 C308.92819,33.6939915 308.629822,33.8309643 308.327998,33.8309643" id="Fill-544" fill="#1D475A"></path>
                    <path d="M371.598133,116.252751 C371.479477,116.301135 371.520949,116.289615 371.721397,116.218191 C371.844661,116.181327 371.969077,116.147919 372.094645,116.120271 C372.356149,116.059215 372.62226,116.014287 372.886068,115.967055 C373.443636,115.866831 374.003508,115.772367 374.562228,115.682511 C375.661236,115.507407 376.71762,115.357647 377.80626,115.226319 C378.701364,115.118031 379.580339,114.508623 379.534259,113.498319 C379.497395,112.655055 378.76818,111.653967 377.80626,111.770319 C376.415796,111.938511 375.027636,112.128591 373.644084,112.350927 C372.349237,112.558287 371.054389,112.718415 369.854005,113.269071 C369.006133,113.658447 368.796469,114.884175 369.234229,115.632975 C369.743413,116.503887 370.746805,116.643279 371.598133,116.252751" id="Fill-549" fill="#FFFFFE"></path>
                    <path d="M264.61882,20.6478238 C264.685636,20.0685983 264.552004,20.9582878 264.657988,20.3848222 C264.690244,20.2052255 264.723652,20.0262047 264.76282,19.8478751 C264.833092,19.521168 264.919492,19.1976864 265.017412,18.8781217 C265.115332,18.5584417 265.224772,18.2424482 265.349188,17.931869 C265.255876,18.1649186 265.467844,17.6681762 265.464388,17.6748578 C265.541572,17.5095459 265.622212,17.3459619 265.706308,17.1842211 C266.383684,15.8845349 267.016132,15.0756006 268.09786,14.0883368 C268.787908,13.4591145 268.73722,12.2832682 268.09786,11.6445995 C267.41242,10.9583532 266.345668,11.0136492 265.654468,11.6445995 C263.07514,13.9983656 261.562565,17.2046115 261.162821,20.6478238 C261.057989,21.5490333 262.031429,22.4143004 262.89082,22.3758236 C263.9161,22.3298588 264.505924,21.6133149 264.61882,20.6478238" id="Fill-550" fill="#FFFFFE"></path>
                    <path d="M271.542339,10.8572076 C272.445507,10.8572076 273.311811,10.0623277 273.270339,9.12920789 C273.227715,8.19297762 272.511171,7.40120814 271.542339,7.40120814 C270.638019,7.40120814 269.772867,8.19597282 269.814339,9.12920789 C269.855811,10.0654381 270.573507,10.8572076 271.542339,10.8572076" id="Fill-551" fill="#FFFFFE"></path>
                    <path d="M120.418393,107.867344 C123.701593,107.867344 126.984792,107.867344 130.267992,107.867344 C131.17116,107.867344 132.037464,107.072464 131.995992,106.139344 C131.953368,105.202768 131.235672,104.411344 130.267992,104.411344 C126.984792,104.411344 123.701593,104.411344 120.418393,104.411344 C119.514073,104.411344 118.648921,105.206224 118.690393,106.139344 C118.731865,107.074768 119.449561,107.867344 120.418393,107.867344" id="Fill-552" fill="#FFFFFE"></path>
                    <path d="M135.337943,107.971024 C136.241111,107.971024 137.107415,107.176144 137.065943,106.243024 C137.023319,105.306448 136.305623,104.515024 135.337943,104.515024 C134.433623,104.515024 133.567319,105.309904 133.609943,106.243024 C133.651415,107.178448 134.369111,107.971024 135.337943,107.971024" id="Fill-553" fill="#FFFFFE"></path>
                    <polyline id="Fill-556" fill="#D3D4CE" points="225.02727 265.184585 96.0758644 264.147785 225.02727 263.110985 225.02727 265.184585"></polyline>
                    <polyline id="Fill-557" fill="#D3D4CE" points="223.577674 257.48793 94.626269 256.45113 223.577674 255.41433 223.577674 257.48793"></polyline>
                    <polyline id="Fill-558" fill="#D3D4CE" points="142.941522 234.829389 13.9896556 233.79259 142.941522 232.75579 142.941522 234.829389"></polyline>
                    <polyline id="Fill-559" fill="#D3D4CE" points="128.951636 252.722251 0 251.685451 128.951636 250.648651 128.951636 252.722251"></polyline>
                </g>
            </g>
        </g>
    </g>
</svg>